<svg width="51" height="50" viewBox="0 0 51 50" fill="none" xmlns="http://www.w3.org/2000/svg">
<rect x="0.5" width="50" height="50" rx="10" fill="#3E5A9B"/>
<g clip-path="url(#clip0_925_18781)">
<path d="M33.9844 13H17.0156C15.0773 13 13.5 14.5773 13.5 16.5156V33.4844C13.5 35.4227 15.0773 37 17.0156 37H24.0938V28.5156H21.2812V24.2969H24.0938V21.4375C24.0938 19.1111 25.9861 17.2188 28.3125 17.2188H32.5781V21.4375H28.3125V24.2969H32.5781L31.875 28.5156H28.3125V37H33.9844C35.9227 37 37.5 35.4227 37.5 33.4844V16.5156C37.5 14.5773 35.9227 13 33.9844 13Z" fill="white"/>
</g>
<defs>
<clipPath id="clip0_925_18781">
<rect width="24" height="24" fill="white" transform="translate(13.5 13)"/>
</clipPath>
</defs>
</svg>
