<svg width="51" height="50" viewBox="0 0 51 50" fill="none" xmlns="http://www.w3.org/2000/svg">
<rect x="0.5" width="50" height="50" rx="10" fill="#3B76EB"/>
<g clip-path="url(#clip0_925_18792)">
<path d="M13.5 25C13.5 18.3832 18.8832 13 25.5 13C28.1723 13 30.7017 13.8598 32.8147 15.4864L30.0262 19.1088C28.7197 18.1031 27.1545 17.5714 25.5 17.5714C21.4039 17.5714 18.0714 20.9039 18.0714 25C18.0714 29.0961 21.4039 32.4286 25.5 32.4286C28.7991 32.4286 31.6026 30.2671 32.5688 27.2857H25.5V22.7143H37.5V25C37.5 31.6168 32.1168 37 25.5 37C18.8832 37 13.5 31.6168 13.5 25Z" fill="white"/>
</g>
<defs>
<clipPath id="clip0_925_18792">
<rect width="24" height="24" fill="white" transform="translate(13.5 13)"/>
</clipPath>
</defs>
</svg>
