<svg width="51" height="50" viewBox="0 0 51 50" fill="none" xmlns="http://www.w3.org/2000/svg">
<rect x="0.5" width="50" height="50" rx="10" fill="black"/>
<g clip-path="url(#clip0_925_18785)">
<path d="M30.1187 13C30.1745 13 30.2304 13 30.2894 13C30.4264 14.6925 29.7804 15.9572 28.9952 16.873C28.2248 17.7825 27.1699 18.6646 25.4637 18.5308C25.3498 16.8625 25.9969 15.6916 26.781 14.7779C27.5082 13.9264 28.8413 13.1686 30.1187 13Z" fill="white"/>
<path d="M35.2837 30.6166C35.2837 30.6335 35.2837 30.6482 35.2837 30.6641C34.8042 32.1163 34.1202 33.3609 33.2855 34.516C32.5236 35.5646 31.5899 36.9757 29.9226 36.9757C28.482 36.9757 27.525 36.0494 26.0486 36.0241C24.4867 35.9988 23.6278 36.7987 22.1998 37C22.0364 37 21.8731 37 21.7129 37C20.6643 36.8482 19.818 36.0178 19.2015 35.2695C17.3836 33.0585 15.9787 30.2025 15.7174 26.5476C15.7174 26.1893 15.7174 25.832 15.7174 25.4737C15.828 22.858 17.099 20.7312 18.7884 19.7005C19.68 19.1525 20.9056 18.6857 22.2704 18.8943C22.8553 18.985 23.4529 19.1852 23.9766 19.3833C24.473 19.5741 25.0937 19.9124 25.6818 19.8945C26.0802 19.8829 26.4764 19.6752 26.878 19.5288C28.0541 19.104 29.207 18.6172 30.7267 18.8458C32.5531 19.122 33.8494 19.9335 34.6503 21.1855C33.1053 22.1687 31.8839 23.6505 32.0926 26.1808C32.278 28.4794 33.6144 29.8241 35.2837 30.6166Z" fill="white"/>
</g>
<defs>
<clipPath id="clip0_925_18785">
<rect width="24" height="24" fill="white" transform="translate(13.5 13)"/>
</clipPath>
</defs>
</svg>
